<mxfile host="app.diagrams.net" modified="2024-03-01T11:11:59.501Z" agent="Mozilla/5.0 (Windows NT 10.0; Win64; x64) AppleWebKit/537.36 (KHTML, like Gecko) Chrome/122.0.0.0 Safari/537.36" etag="ZlN9n7-P1Lj428i-fKpt" version="24.0.0" type="device">
  <diagram name="Страница — 1" id="rzjO-vOT7q0N-FWk-6G0">
    <mxGraphModel dx="1434" dy="738" grid="1" gridSize="10" guides="1" tooltips="1" connect="1" arrows="1" fold="1" page="1" pageScale="1" pageWidth="827" pageHeight="1169" math="0" shadow="0">
      <root>
        <mxCell id="0" />
        <mxCell id="1" parent="0" />
        <mxCell id="BH8-bxPjUuOaHF--VqtQ-5" value="манипулирует" style="edgeStyle=orthogonalEdgeStyle;rounded=0;orthogonalLoop=1;jettySize=auto;html=1;exitX=1;exitY=0.75;exitDx=0;exitDy=0;entryX=0;entryY=0.75;entryDx=0;entryDy=0;fillColor=#f5f5f5;strokeColor=default;flowAnimation=1;" parent="1" source="BH8-bxPjUuOaHF--VqtQ-2" target="BH8-bxPjUuOaHF--VqtQ-4" edge="1">
          <mxGeometry relative="1" as="geometry" />
        </mxCell>
        <mxCell id="v3jmCGaw-nn4HzSDJ-G7-1" value="обновляет данные" style="edgeStyle=orthogonalEdgeStyle;rounded=0;orthogonalLoop=1;jettySize=auto;html=1;exitX=0;exitY=0.5;exitDx=0;exitDy=0;flowAnimation=1;" edge="1" parent="1" source="BH8-bxPjUuOaHF--VqtQ-2" target="BH8-bxPjUuOaHF--VqtQ-15">
          <mxGeometry relative="1" as="geometry" />
        </mxCell>
        <mxCell id="BH8-bxPjUuOaHF--VqtQ-2" value="&lt;font style=&quot;&quot;&gt;&lt;span style=&quot;font-size: 20px;&quot;&gt;controller&lt;/span&gt;&lt;br&gt;&lt;font style=&quot;font-size: 14px;&quot;&gt;(поведение)&lt;/font&gt;&lt;/font&gt;" style="rounded=1;whiteSpace=wrap;html=1;fillColor=#ffe6cc;strokeColor=#d79b00;" parent="1" vertex="1">
          <mxGeometry x="552.5" y="223.75" width="150" height="50" as="geometry" />
        </mxCell>
        <mxCell id="BH8-bxPjUuOaHF--VqtQ-4" value="&lt;font style=&quot;&quot;&gt;&lt;font style=&quot;font-size: 20px;&quot;&gt;model&lt;/font&gt;&lt;br&gt;&lt;font style=&quot;font-size: 16px;&quot;&gt;Data Logic&lt;/font&gt;&lt;/font&gt;" style="rounded=1;whiteSpace=wrap;html=1;fillColor=#d5e8d4;strokeColor=#82b366;" parent="1" vertex="1">
          <mxGeometry x="827" y="223.75" width="150" height="50" as="geometry" />
        </mxCell>
        <mxCell id="BH8-bxPjUuOaHF--VqtQ-13" value="&lt;span style=&quot;font-size: 16px;&quot;&gt;database&lt;/span&gt;" style="shape=cylinder3;whiteSpace=wrap;html=1;boundedLbl=1;backgroundOutline=1;size=15;fillColor=#dae8fc;strokeColor=#6c8ebf;" parent="1" vertex="1">
          <mxGeometry x="1090" y="215" width="107.5" height="67.5" as="geometry" />
        </mxCell>
        <mxCell id="BH8-bxPjUuOaHF--VqtQ-14" style="edgeStyle=orthogonalEdgeStyle;rounded=1;orthogonalLoop=1;jettySize=auto;html=1;exitX=1;exitY=0.5;exitDx=0;exitDy=0;entryX=0;entryY=0.5;entryDx=0;entryDy=0;entryPerimeter=0;flowAnimation=1;curved=0;" parent="1" source="BH8-bxPjUuOaHF--VqtQ-4" target="BH8-bxPjUuOaHF--VqtQ-13" edge="1">
          <mxGeometry relative="1" as="geometry" />
        </mxCell>
        <mxCell id="BH8-bxPjUuOaHF--VqtQ-33" value="создание&amp;nbsp;&lt;br&gt;обновление&lt;br&gt;чтение&lt;br&gt;удаление" style="edgeLabel;html=1;align=center;verticalAlign=middle;resizable=0;points=[];" parent="BH8-bxPjUuOaHF--VqtQ-14" vertex="1" connectable="0">
          <mxGeometry x="-0.0243" y="3" relative="1" as="geometry">
            <mxPoint as="offset" />
          </mxGeometry>
        </mxCell>
        <mxCell id="v3jmCGaw-nn4HzSDJ-G7-3" value="&#xa;&lt;span style=&quot;color: rgb(0, 0, 0); font-family: Helvetica; font-size: 11px; font-style: normal; font-variant-ligatures: normal; font-variant-caps: normal; font-weight: 400; letter-spacing: normal; orphans: 2; text-align: center; text-indent: 0px; text-transform: none; widows: 2; word-spacing: 0px; -webkit-text-stroke-width: 0px; white-space: nowrap; background-color: rgb(255, 255, 255); text-decoration-thickness: initial; text-decoration-style: initial; text-decoration-color: initial; display: inline !important; float: none;&quot;&gt;Видит&lt;/span&gt;&lt;br style=&quot;color: rgb(0, 0, 0); font-family: Helvetica; font-size: 11px; font-style: normal; font-variant-ligatures: normal; font-variant-caps: normal; font-weight: 400; letter-spacing: normal; orphans: 2; text-align: center; text-indent: 0px; text-transform: none; widows: 2; word-spacing: 0px; -webkit-text-stroke-width: 0px; white-space: nowrap; text-decoration-thickness: initial; text-decoration-style: initial; text-decoration-color: initial;&quot;&gt;&lt;span style=&quot;color: rgb(0, 0, 0); font-family: Helvetica; font-size: 11px; font-style: normal; font-variant-ligatures: normal; font-variant-caps: normal; font-weight: 400; letter-spacing: normal; orphans: 2; text-align: center; text-indent: 0px; text-transform: none; widows: 2; word-spacing: 0px; -webkit-text-stroke-width: 0px; white-space: nowrap; background-color: rgb(255, 255, 255); text-decoration-thickness: initial; text-decoration-style: initial; text-decoration-color: initial; display: inline !important; float: none;&quot;&gt;Response&lt;/span&gt;&#xa;&#xa;" style="edgeStyle=orthogonalEdgeStyle;rounded=0;orthogonalLoop=1;jettySize=auto;html=1;exitX=0;exitY=0.5;exitDx=0;exitDy=0;flowAnimation=1;" edge="1" parent="1" source="BH8-bxPjUuOaHF--VqtQ-15" target="BH8-bxPjUuOaHF--VqtQ-21">
          <mxGeometry relative="1" as="geometry" />
        </mxCell>
        <mxCell id="BH8-bxPjUuOaHF--VqtQ-15" value="&lt;font style=&quot;&quot;&gt;&lt;span style=&quot;font-size: 20px;&quot;&gt;view UI&lt;/span&gt;&lt;br&gt;&lt;font style=&quot;font-size: 14px;&quot;&gt;(представление)&lt;/font&gt;&lt;/font&gt;" style="rounded=1;whiteSpace=wrap;html=1;fillColor=#fff2cc;strokeColor=#d6b656;" parent="1" vertex="1">
          <mxGeometry x="280" y="223.75" width="150" height="50" as="geometry" />
        </mxCell>
        <mxCell id="v3jmCGaw-nn4HzSDJ-G7-12" value="Действия пользователя Request (HTTP)" style="edgeStyle=orthogonalEdgeStyle;rounded=1;orthogonalLoop=1;jettySize=auto;html=1;exitX=0.5;exitY=1;exitDx=0;exitDy=0;entryX=0.5;entryY=1;entryDx=0;entryDy=0;curved=0;flowAnimation=1;" edge="1" parent="1" source="BH8-bxPjUuOaHF--VqtQ-21" target="BH8-bxPjUuOaHF--VqtQ-2">
          <mxGeometry relative="1" as="geometry">
            <Array as="points">
              <mxPoint x="120" y="274" />
              <mxPoint x="120" y="350" />
              <mxPoint x="628" y="350" />
            </Array>
          </mxGeometry>
        </mxCell>
        <mxCell id="BH8-bxPjUuOaHF--VqtQ-21" value="&lt;span style=&quot;font-size: 20px;&quot;&gt;user&lt;/span&gt;" style="rounded=1;whiteSpace=wrap;html=1;fillColor=#f8cecc;strokeColor=#b85450;" parent="1" vertex="1">
          <mxGeometry x="40" y="223.75" width="147.5" height="50" as="geometry" />
        </mxCell>
        <mxCell id="BH8-bxPjUuOaHF--VqtQ-40" style="edgeStyle=orthogonalEdgeStyle;rounded=0;orthogonalLoop=1;jettySize=auto;html=1;exitX=1;exitY=0.5;exitDx=0;exitDy=0;entryX=0;entryY=0.5;entryDx=0;entryDy=0;flowAnimation=1;entryPerimeter=0;curved=1;startArrow=classic;startFill=1;" parent="1" source="BH8-bxPjUuOaHF--VqtQ-36" target="v3jmCGaw-nn4HzSDJ-G7-15" edge="1">
          <mxGeometry relative="1" as="geometry" />
        </mxCell>
        <mxCell id="BH8-bxPjUuOaHF--VqtQ-36" value="&lt;font style=&quot;font-size: 20px;&quot;&gt;model&lt;/font&gt;" style="rounded=1;whiteSpace=wrap;html=1;fillColor=#d5e8d4;strokeColor=#82b366;" parent="1" vertex="1">
          <mxGeometry x="335" y="390" width="150" height="50" as="geometry" />
        </mxCell>
        <mxCell id="BH8-bxPjUuOaHF--VqtQ-56" style="rounded=0;orthogonalLoop=1;jettySize=auto;html=1;exitX=1;exitY=0.5;exitDx=0;exitDy=0;entryX=0;entryY=0.5;entryDx=0;entryDy=0;flowAnimation=1;startArrow=classic;startFill=1;" parent="1" source="BH8-bxPjUuOaHF--VqtQ-38" target="BH8-bxPjUuOaHF--VqtQ-36" edge="1">
          <mxGeometry relative="1" as="geometry" />
        </mxCell>
        <mxCell id="BH8-bxPjUuOaHF--VqtQ-38" value="&lt;span style=&quot;font-size: 20px;&quot;&gt;controller&lt;/span&gt;&lt;br&gt;&lt;font style=&quot;font-size: 14px;&quot;&gt;(поведение)&lt;/font&gt;" style="rounded=1;whiteSpace=wrap;html=1;fillColor=#ffe6cc;strokeColor=#d79b00;" parent="1" vertex="1">
          <mxGeometry x="80" y="480" width="150" height="50" as="geometry" />
        </mxCell>
        <mxCell id="BH8-bxPjUuOaHF--VqtQ-41" style="edgeStyle=orthogonalEdgeStyle;rounded=0;orthogonalLoop=1;jettySize=auto;html=1;exitX=1;exitY=0.5;exitDx=0;exitDy=0;entryX=0;entryY=0.5;entryDx=0;entryDy=0;flowAnimation=1;entryPerimeter=0;curved=1;startArrow=classic;startFill=1;" parent="1" source="BH8-bxPjUuOaHF--VqtQ-42" target="v3jmCGaw-nn4HzSDJ-G7-15" edge="1">
          <mxGeometry relative="1" as="geometry">
            <mxPoint x="532.5" y="475" as="targetPoint" />
          </mxGeometry>
        </mxCell>
        <mxCell id="BH8-bxPjUuOaHF--VqtQ-42" value="&lt;span style=&quot;font-size: 20px;&quot;&gt;model&lt;/span&gt;" style="rounded=1;whiteSpace=wrap;html=1;fillColor=#d5e8d4;strokeColor=#82b366;" parent="1" vertex="1">
          <mxGeometry x="335" y="450" width="150" height="50" as="geometry" />
        </mxCell>
        <mxCell id="BH8-bxPjUuOaHF--VqtQ-44" style="edgeStyle=orthogonalEdgeStyle;rounded=0;orthogonalLoop=1;jettySize=auto;html=1;exitX=1;exitY=0.5;exitDx=0;exitDy=0;entryX=0;entryY=0.5;entryDx=0;entryDy=0;flowAnimation=1;entryPerimeter=0;curved=1;startArrow=classic;startFill=1;" parent="1" source="BH8-bxPjUuOaHF--VqtQ-45" target="v3jmCGaw-nn4HzSDJ-G7-15" edge="1">
          <mxGeometry relative="1" as="geometry">
            <mxPoint x="532.5" y="595" as="targetPoint" />
          </mxGeometry>
        </mxCell>
        <mxCell id="BH8-bxPjUuOaHF--VqtQ-45" value="&lt;span style=&quot;font-size: 20px;&quot;&gt;model&lt;/span&gt;" style="rounded=1;whiteSpace=wrap;html=1;fillColor=#d5e8d4;strokeColor=#82b366;" parent="1" vertex="1">
          <mxGeometry x="335" y="570" width="150" height="50" as="geometry" />
        </mxCell>
        <mxCell id="BH8-bxPjUuOaHF--VqtQ-50" style="edgeStyle=orthogonalEdgeStyle;rounded=0;orthogonalLoop=1;jettySize=auto;html=1;exitX=1;exitY=0.5;exitDx=0;exitDy=0;entryX=0;entryY=0.5;entryDx=0;entryDy=0;flowAnimation=1;entryPerimeter=0;curved=1;startArrow=classic;startFill=1;" parent="1" source="BH8-bxPjUuOaHF--VqtQ-51" target="v3jmCGaw-nn4HzSDJ-G7-15" edge="1">
          <mxGeometry relative="1" as="geometry">
            <mxPoint x="532.5" y="535" as="targetPoint" />
          </mxGeometry>
        </mxCell>
        <mxCell id="BH8-bxPjUuOaHF--VqtQ-51" value="&lt;span style=&quot;font-size: 20px;&quot;&gt;model&lt;/span&gt;" style="rounded=1;whiteSpace=wrap;html=1;fillColor=#d5e8d4;strokeColor=#82b366;" parent="1" vertex="1">
          <mxGeometry x="335" y="510" width="150" height="50" as="geometry" />
        </mxCell>
        <mxCell id="BH8-bxPjUuOaHF--VqtQ-48" style="rounded=0;orthogonalLoop=1;jettySize=auto;html=1;exitX=1;exitY=0.5;exitDx=0;exitDy=0;entryX=0;entryY=0.5;entryDx=0;entryDy=0;flowAnimation=1;startArrow=classic;startFill=1;" parent="1" source="BH8-bxPjUuOaHF--VqtQ-38" target="BH8-bxPjUuOaHF--VqtQ-42" edge="1">
          <mxGeometry relative="1" as="geometry" />
        </mxCell>
        <mxCell id="BH8-bxPjUuOaHF--VqtQ-55" style="rounded=0;orthogonalLoop=1;jettySize=auto;html=1;exitX=1;exitY=0.5;exitDx=0;exitDy=0;flowAnimation=1;startArrow=classic;startFill=1;" parent="1" source="BH8-bxPjUuOaHF--VqtQ-38" target="BH8-bxPjUuOaHF--VqtQ-51" edge="1">
          <mxGeometry relative="1" as="geometry" />
        </mxCell>
        <mxCell id="BH8-bxPjUuOaHF--VqtQ-47" style="rounded=0;orthogonalLoop=1;jettySize=auto;html=1;exitX=1;exitY=0.5;exitDx=0;exitDy=0;entryX=0;entryY=0.5;entryDx=0;entryDy=0;flowAnimation=1;startArrow=classic;startFill=1;" parent="1" source="BH8-bxPjUuOaHF--VqtQ-38" target="BH8-bxPjUuOaHF--VqtQ-45" edge="1">
          <mxGeometry relative="1" as="geometry" />
        </mxCell>
        <mxCell id="v3jmCGaw-nn4HzSDJ-G7-6" value="события и данные" style="edgeStyle=orthogonalEdgeStyle;rounded=0;orthogonalLoop=1;jettySize=auto;html=1;fillColor=#f5f5f5;strokeColor=default;flowAnimation=1;entryX=1;entryY=0.25;entryDx=0;entryDy=0;exitX=0;exitY=0.25;exitDx=0;exitDy=0;" edge="1" parent="1" source="BH8-bxPjUuOaHF--VqtQ-4" target="BH8-bxPjUuOaHF--VqtQ-2">
          <mxGeometry relative="1" as="geometry">
            <mxPoint x="70" y="430" as="sourcePoint" />
            <mxPoint x="200" y="410" as="targetPoint" />
          </mxGeometry>
        </mxCell>
        <mxCell id="v3jmCGaw-nn4HzSDJ-G7-15" value="&lt;font style=&quot;font-size: 16px;&quot;&gt;database&lt;/font&gt;" style="shape=cylinder3;whiteSpace=wrap;html=1;boundedLbl=1;backgroundOutline=1;size=15;fillColor=#dae8fc;strokeColor=#6c8ebf;" vertex="1" parent="1">
          <mxGeometry x="660" y="473.12" width="107.5" height="63.75" as="geometry" />
        </mxCell>
        <mxCell id="v3jmCGaw-nn4HzSDJ-G7-17" value="&lt;h1 id=&quot;firstHeading&quot; class=&quot;firstHeading mw-first-heading&quot; style=&quot;color: rgb(0, 0, 0); font-weight: normal; margin: 0px 0px 0.25em; padding: 0px; overflow: visible; border-bottom: 1px solid rgb(162, 169, 177); font-size: 1.8em; line-height: 1.375; font-style: normal; font-variant-ligatures: normal; font-variant-caps: normal; letter-spacing: normal; orphans: 2; text-align: start; text-indent: 0px; text-transform: none; widows: 2; word-spacing: 0px; -webkit-text-stroke-width: 0px; white-space: normal; text-decoration-thickness: initial; text-decoration-style: initial; text-decoration-color: initial;&quot;&gt;&lt;br&gt;&lt;/h1&gt;" style="text;whiteSpace=wrap;html=1;" vertex="1" parent="1">
          <mxGeometry x="50" y="40" width="260" height="60" as="geometry" />
        </mxCell>
        <mxCell id="v3jmCGaw-nn4HzSDJ-G7-19" value="Model-View-Controller" style="text;whiteSpace=wrap;fontSize=30;" vertex="1" parent="1">
          <mxGeometry x="40" y="70" width="330" height="50" as="geometry" />
        </mxCell>
      </root>
    </mxGraphModel>
  </diagram>
</mxfile>
